<?xml version="1.0" standalone="no"?>
<!DOCTYPE svg PUBLIC "-//W3C//DTD SVG 20010904//EN"
 "http://www.w3.org/TR/2001/REC-SVG-20010904/DTD/svg10.dtd">
<svg version="1.0" xmlns="http://www.w3.org/2000/svg"
 width="445.000000pt" height="422.000000pt" viewBox="0 0 445.000000 422.000000"
 preserveAspectRatio="xMidYMid meet">

<g transform="translate(0.000000,422.000000) scale(0.100000,-0.100000)"
fill="#000000" stroke="none">
<path d="M2810 3753 c-179 -12 -229 -18 -243 -31 -15 -13 -20 -14 -27 -3 -9
15 6 15 -425 -9 -289 -16 -265 -9 -325 -91 l-52 -69 -36 31 c-19 17 -56 40
-81 51 -82 35 -155 37 -501 16 -178 -10 -325 -20 -326 -21 0 -1 -25 -35 -54
-75 l-52 -73 -94 -767 c-51 -422 -94 -775 -94 -784 0 -18 29 -19 203 -3 43 4
48 2 41 -13 -46 -103 -64 -190 -94 -442 -33 -277 -34 -350 -5 -445 33 -113
115 -193 232 -228 165 -49 430 -20 582 65 29 16 55 27 58 25 2 -3 -1 -51 -8
-106 -7 -56 -10 -104 -7 -107 3 -3 110 1 237 7 l230 13 55 76 54 76 31 214
c17 118 33 221 36 228 5 13 65 17 65 5 0 -5 -11 -102 -25 -218 -14 -116 -25
-211 -25 -213 0 -2 43 0 95 4 62 4 95 3 95 -3 0 -6 -55 -122 -122 -258 l-121
-247 23 -99 24 -99 51 0 c35 0 362 81 1025 256 536 140 975 256 976 257 0 1
25 35 54 75 l52 73 -93 372 c-87 345 -96 372 -116 375 -13 2 -23 8 -23 13 0 5
35 58 78 117 43 59 87 120 97 135 l18 28 -39 40 c-21 21 -43 39 -49 38 -5 0
-93 -116 -194 -257 -138 -193 -182 -249 -177 -223 l6 34 -35 -7 c-19 -3 -51
-9 -71 -12 l-36 -7 7 32 7 31 -51 0 c-50 0 -50 0 -46 28 3 15 14 98 24 184
l18 157 54 73 53 73 23 180 c12 99 22 197 23 219 l0 38 -101 -3 -102 -4 -83
220 c-46 121 -84 227 -84 235 0 8 17 39 38 70 78 112 106 224 107 425 0 115
-1 122 -29 173 -36 65 -82 107 -156 141 -50 23 -67 26 -200 27 -80 1 -246 -5
-370 -13z m443 -73 c82 -12 133 -37 175 -84 55 -63 63 -132 37 -316 -18 -128
-55 -211 -120 -268 l-44 -39 89 -234 c49 -128 87 -235 84 -238 -5 -5 -197 -19
-280 -20 l-51 -1 -84 221 -83 221 -51 -7 c-27 -3 -50 -7 -51 -8 -1 -1 -11
-100 -22 -221 -12 -120 -23 -221 -26 -223 -4 -4 -411 -33 -597 -43 -3 0 -9 57
-13 127 -4 70 -9 129 -11 132 -2 2 -65 0 -139 -4 l-134 -7 -33 -131 c-17 -73
-33 -133 -33 -134 -3 -4 -309 -24 -313 -20 -3 4 345 1217 352 1225 4 5 545 36
549 31 2 -2 18 -235 37 -516 18 -282 34 -511 36 -509 2 2 30 236 63 521 33
285 61 519 62 520 2 2 383 27 508 33 14 1 56 -3 93 -8z m-1656 -136 c110 -56
138 -145 114 -362 -21 -186 -47 -249 -135 -331 -89 -81 -190 -113 -398 -126
-71 -5 -108 -11 -108 -18 0 -19 -70 -530 -73 -533 -1 -1 -69 -6 -150 -10
l-148 -7 6 49 c4 27 42 338 85 692 43 354 80 645 82 647 8 8 451 33 555 31
102 -2 117 -5 170 -32z m-193 -921 c9 -32 46 -194 46 -203 0 -5 -16 -6 -35 -3
-41 7 -41 6 -19 -81 l16 -64 84 -10 c98 -13 154 -35 208 -82 81 -71 102 -159
79 -335 -8 -66 -18 -123 -21 -127 -4 -4 -70 -10 -147 -15 l-140 -8 0 123 0
124 -33 29 c-26 24 -41 29 -82 29 -62 0 -97 -13 -138 -53 -44 -42 -57 -93 -82
-315 -28 -254 -27 -284 9 -324 27 -31 34 -33 93 -33 98 0 162 50 188 146 6 21
18 40 28 43 9 2 77 7 150 11 95 5 132 4 132 -5 0 -6 -7 -46 -16 -88 -38 -186
-145 -295 -344 -349 -92 -25 -315 -25 -385 0 -103 36 -156 102 -177 225 -10
61 -8 99 20 338 34 299 52 372 112 461 64 97 188 174 305 190 l43 5 43 -61 43
-61 23 22 c13 12 23 26 23 31 0 6 -44 71 -98 146 -54 75 -102 142 -106 150 -7
10 1 12 38 10 25 -2 46 -3 46 -1 0 2 -18 34 -40 72 -22 38 -40 71 -40 74 0 3
38 6 84 6 72 0 85 -3 90 -17z m786 -220 c0 -10 -16 -150 -36 -310 -21 -161
-35 -296 -31 -299 7 -8 304 10 313 18 3 4 19 118 35 254 16 137 31 250 33 251
5 6 289 24 293 19 6 -6 -129 -1199 -136 -1208 -5 -6 -291 -28 -298 -24 -1 1 9
94 22 206 14 113 25 211 25 219 0 11 -23 12 -127 7 -71 -4 -144 -9 -163 -12
l-35 -5 -43 -291 c-23 -160 -44 -293 -46 -295 -7 -7 -288 -24 -294 -18 -3 2
40 339 94 747 l99 743 80 6 c175 12 215 11 215 -8z m1500 -33 c0 -43 -23 -226
-30 -233 -3 -4 -121 -14 -261 -23 -140 -8 -259 -17 -265 -19 -10 -3 -38 -215
-30 -223 2 -2 99 3 215 9 116 7 213 10 217 6 8 -8 -17 -246 -26 -252 -4 -3
-103 -10 -220 -17 -244 -14 -223 -2 -235 -130 l-7 -78 39 0 c21 0 139 7 263
15 124 8 227 15 230 15 3 0 4 -20 2 -45 -2 -25 0 -45 4 -45 5 0 58 12 117 28
l108 27 35 -37 c19 -21 38 -38 43 -38 5 0 30 29 55 64 35 49 52 65 77 70 18 3
33 5 34 4 5 -7 145 -581 143 -583 -3 -3 -1843 -485 -1862 -488 -5 -1 -15 21
-22 49 l-14 52 142 288 c77 159 142 290 143 292 1 2 31 11 66 20 l63 17 70
610 c38 336 71 612 72 614 5 5 665 48 767 50 60 1 67 -1 67 -19z"/>
<path d="M2959 3413 c-42 -5 -42 -6 -54 -168 -3 -44 -8 -91 -11 -104 l-5 -24
88 5 c55 3 101 12 122 22 44 23 76 93 68 151 -16 112 -54 134 -208 118z"/>
<path d="M2046 3133 c-27 -109 -51 -206 -54 -217 -5 -18 1 -18 102 -14 58 3
108 7 111 9 2 3 1 98 -2 212 l-6 207 -51 0 -52 0 -48 -197z"/>
<path d="M1158 3303 c-10 -2 -20 -18 -23 -36 -7 -41 -34 -281 -32 -284 1 -1
49 2 106 7 154 12 188 43 198 180 5 83 5 86 -22 113 -26 26 -32 27 -119 26
-50 -1 -99 -3 -108 -6z"/>
<path d="M3732 1295 c-46 -13 -86 -25 -88 -28 -7 -7 -46 -439 -40 -444 3 -3
27 0 55 7 l49 12 7 49 c8 56 7 55 57 64 36 7 37 7 48 -34 12 -45 13 -46 76
-30 53 14 55 -14 -15 247 -26 97 -51 177 -56 178 -6 1 -48 -8 -93 -21z m37
-142 c25 -98 25 -102 -4 -113 -46 -17 -48 -15 -40 63 4 39 9 75 12 80 10 17
23 5 32 -30z"/>
<path d="M3375 1203 c-55 -14 -101 -27 -103 -28 -3 -2 30 -428 33 -433 1 -1
26 3 55 10 l53 12 -6 67 -6 67 48 12 c106 25 144 73 142 178 -1 73 -21 119
-57 132 -34 13 -43 12 -159 -17z m103 -129 c3 -46 -8 -61 -56 -70 l-32 -6 0
55 c0 50 2 56 23 60 51 10 62 4 65 -39z"/>
<path d="M3160 1146 c-35 -13 -35 -13 -32 -67 8 -126 30 -371 34 -374 2 -2 26
2 53 9 l50 12 -3 45 c-4 68 -21 278 -28 337 -6 57 -12 60 -74 38z"/>
<path d="M2941 1090 c-79 -21 -145 -41 -148 -43 -2 -3 -1 -25 2 -50 l7 -45 86
23 c48 13 88 23 88 22 1 -1 -34 -65 -77 -142 -63 -112 -78 -148 -79 -183 0
-27 5 -45 14 -48 10 -4 147 27 274 62 19 5 22 13 22 55 0 27 -3 49 -7 49 -4 0
-40 -9 -80 -21 -41 -11 -78 -19 -83 -17 -5 2 26 66 69 143 72 130 77 143 73
188 -2 26 -7 47 -11 46 -3 0 -71 -18 -150 -39z"/>
<path d="M4045 1054 c-5 -2 -29 -8 -51 -14 l-42 -10 16 -61 c10 -41 19 -59 28
-55 7 3 29 8 48 12 20 3 38 9 41 13 4 7 -20 110 -27 116 -2 1 -7 1 -13 -1z"/>
<path d="M4122 2124 c-67 -117 -102 -180 -102 -187 0 -11 113 4 135 18 11 7
37 43 58 81 l38 68 -44 44 -45 44 -40 -68z"/>
<path d="M3833 1817 c-29 -5 -53 -13 -53 -16 0 -4 18 -24 39 -45 46 -45 66
-43 75 9 4 20 10 43 13 51 6 16 1 16 -74 1z"/>
</g>
</svg>
